<?xml version="1.0" encoding="utf-8"?>
<!-- Generator: Adobe Illustrator 25.0.1, SVG Export Plug-In . SVG Version: 6.00 Build 0)  -->
<svg version="1.0" id="Layer_1" xmlns="http://www.w3.org/2000/svg" xmlns:xlink="http://www.w3.org/1999/xlink" x="0px" y="0px"
	 viewBox="0 0 340 234" style="enable-background:new 0 0 340 234;" xml:space="preserve">
<style type="text/css">
	.st0{fill:#1D2849;}
	.st1{fill:none;}
</style>
<path class="st0" d="M242.7,204.6h-0.1c0-0.5,0-1.1,0.1-1.6c0-0.1,0.1-0.3-0.1-0.4h0.1V204.6z"/>
<path class="st0" d="M135.9,207.6c0-0.2,0-0.4,0-0.6v-32.2c0-0.3,0-0.3,0.3-0.3h0.3c2.4,0,4.7,0,7.1,0c1,0,1.9,0.1,2.8,0.4
	c0.8,0.2,1.6,0.5,2.3,1c1.5,0.9,2.4,2.5,2.4,4.3c0,0.6,0,1.2,0,1.8c0,3,0,6,0,8.9c0,0.5-0.1,1.1-0.2,1.6c-0.3,1.3-1.2,2.3-2.3,3
	l-0.8,0.5c0,0.1,0,0.3,0.1,0.4c1.4,3,2.5,6.1,3.2,9.3c0.1,0.5,0.3,1.1,0.4,1.6c0.1,0.3,0,0.4-0.3,0.4h-4.8c-0.4,0-0.4,0-0.4-0.4
	c-0.3-1.3-0.7-2.6-1.1-3.9c-0.7-2.2-1.6-4.3-2.7-6.3c-0.1-0.2-0.2-0.4-0.2-0.6c0-0.7,0-1.5,0-2.2c0-0.2,0.1-0.4,0.3-0.4
	c0.6-0.2,1.2-0.5,1.8-0.9c0.5-0.3,0.9-0.6,1.3-0.9c0.3-0.2,0.5-0.6,0.4-1c0-2.5,0-5,0-7.5c0-1.1,0-2.1,0-3.2c0-0.3,0-0.4-0.3-0.5
	c-0.5-0.2-1-0.3-1.5-0.3c-0.9,0-1.8,0-2.7,0c-0.2,0-0.2,0.1-0.2,0.2s0,0.4,0,0.6v27.1c0,0.2-0.1,0.2-0.2,0.2h-4.5
	C136.2,207.6,136.1,207.6,135.9,207.6z"/>
<path class="st0" d="M116.5,191v-11.1c0-0.4,0-0.8,0.1-1.3c0.2-1.2,0.9-2.3,1.9-3.1c0.8-0.6,1.6-1,2.6-1.2c2.2-0.6,4.4-0.5,6.5,0.2
	c0.8,0.2,1.5,0.6,2.1,1.1c1.2,0.9,1.9,2.3,1.9,3.8c0,0.2,0,0.4,0,0.5v22.2c0,0.6,0,1.1-0.2,1.6c-0.3,1-0.8,1.9-1.7,2.6
	c-0.9,0.7-1.9,1.2-2.9,1.4c-2.2,0.6-4.5,0.5-6.7-0.3c-0.6-0.2-1.2-0.5-1.7-0.9c-1.3-0.9-2.1-2.4-2.1-4c0-1.3,0-2.6,0-3.9L116.5,191z
	 M126.5,191v-8.4c0-0.9,0-1.8,0-2.7c0-0.4,0-0.5-0.4-0.6c-1.2-0.4-2.5-0.4-3.7,0c-0.6,0.2-0.6,0.1-0.6,0.8v21.8c0,0.2,0,0.3,0,0.5
	c0,0.3,0,0.4,0.3,0.5c1.2,0.4,2.5,0.5,3.8,0.1c0.7-0.2,0.6-0.2,0.6-0.8C126.4,198.3,126.4,194.7,126.5,191L126.5,191z"/>
<path class="st0" d="M196.1,191c0,3.6,0,7.3,0,10.9c0,0.8-0.2,0.7,0.7,0.9c1.2,0.3,2.4,0.3,3.5-0.1c0.4-0.1,0.4-0.1,0.4-0.6
	c0-2.8,0-5.6,0-8.4c0-0.3-0.1-0.5-0.3-0.7c-0.7-0.7-1.5-1.3-2.4-1.8l-0.4-0.2c-0.2-0.1-0.2-0.2-0.2-0.4v-2.3c0-0.2,0.1-0.3,0.3-0.3
	h8.1c0.1,0,0.2,0.1,0.2,0.2c0,0,0,0,0,0c0,0.2,0,0.3,0,0.5v13.3c0,0.5,0,0.9-0.1,1.4c-0.3,1.2-1,2.3-2,3c-0.8,0.6-1.7,1-2.6,1.2
	c-2.1,0.5-4.3,0.5-6.3-0.2c-0.7-0.2-1.4-0.6-2-1c-1.3-0.9-2.1-2.3-2.1-3.9c0-0.2,0-0.4,0-0.6V180c0-0.5,0-1,0.1-1.5
	c0.2-1.1,0.8-2.1,1.7-2.8c0.8-0.7,1.8-1.1,2.8-1.4c2.3-0.6,4.7-0.5,6.9,0.3c0.7,0.3,1.4,0.7,2,1.2c1,0.8,1.6,2,1.7,3.4
	c0,0.1,0,0.2,0,0.3c0,1.4,0,2.7,0,4.1c0,0.4,0,0.4-0.4,0.4c-0.6,0.1-1.1,0.3-1.7,0.3c-0.9,0.1-1.9,0.2-2.8,0.3c-0.4,0-0.4,0-0.4-0.4
	c0-1.4,0-2.8,0-4.1c0-0.8,0.1-0.7-0.7-0.9c-1.2-0.3-2.5-0.3-3.7,0.1c-0.2,0-0.3,0.2-0.3,0.4c0,0.1,0,0.3,0,0.5L196.1,191z"/>
<path class="st0" d="M122.2,151.4v-11c0-0.5,0-1,0.1-1.5c0.2-1.2,0.9-2.3,1.9-3c0.8-0.6,1.8-1,2.8-1.3c2.1-0.5,4.4-0.4,6.5,0.3
	c0.5,0.2,1.1,0.5,1.5,0.8c1.4,0.9,2.3,2.4,2.3,4.1c0,1.4,0,2.8,0,4.1c0,0.3,0,0.3-0.3,0.4c-0.4,0.1-0.8,0.2-1.2,0.3
	c-1.1,0.2-2.2,0.3-3.2,0.4h-0.2c-0.2,0-0.3-0.1-0.3-0.3v-3c0-0.5,0-1.1,0-1.6c0-0.2-0.1-0.4-0.3-0.4c-1.3-0.4-2.8-0.4-4.1,0
	c-0.2,0-0.3,0.2-0.3,0.4c0,0.1,0,0.3,0,0.4c0,7.2,0,14.5,0,21.8c0,0.8-0.2,0.8,0.8,1c1.2,0.3,2.4,0.3,3.6-0.1c0.2,0,0.3-0.2,0.3-0.4
	c0-0.1,0-0.2,0-0.3c0-2.7,0-5.4,0-8.1c0-0.4-0.1-0.8-0.4-1.1c-0.7-0.8-1.6-1.3-2.6-1.7c-0.2-0.1-0.4-0.3-0.3-0.5c0-0.7,0-1.5,0-2.2
	c0-0.2,0.1-0.3,0.3-0.3h8c0.2,0,0.3,0.1,0.3,0.3c0,0.2,0,0.3,0,0.5c0,4.4,0,8.8,0,13.2c0,0.5,0,1-0.1,1.5c-0.2,1.1-0.9,2.1-1.8,2.8
	c-1,0.7-2.1,1.2-3.2,1.4c-1.9,0.4-3.8,0.3-5.7-0.2c-0.8-0.2-1.6-0.6-2.3-1.1c-1.2-0.9-2-2.3-2-3.8c0-0.3,0-0.6,0-0.9L122.2,151.4z"
	/>
<path class="st0" d="M171.4,188.8v-13.6c0-0.2,0-0.4,0-0.6c0-0.1,0.1-0.2,0.2-0.2c0,0,0,0,0.1,0h4.7c0.2,0,0.3,0.1,0.3,0.3
	s0,0.4,0,0.6v26.8c0,0.5-0.1,0.5,0.5,0.7c1.3,0.4,2.6,0.4,3.9,0c0.3-0.1,0.3-0.1,0.3-0.5s0-0.4,0-0.5v-26.5c0-1-0.1-0.9,0.8-0.9h4.1
	c0.1,0,0.2,0.1,0.3,0.2c0,0,0,0,0,0c0,0.1,0,0.1,0,0.2c0,0.1,0,0.2,0,0.3c0,9,0,18,0,27c0,0.5,0,1-0.2,1.5c-0.3,1.2-1,2.2-2,2.9
	c-0.8,0.5-1.6,0.9-2.5,1.1c-2.1,0.5-4.3,0.5-6.4-0.2c-1-0.3-2-0.9-2.7-1.6c-0.8-0.8-1.3-1.9-1.4-3.1c0-0.3,0-0.5,0-0.8L171.4,188.8z
	"/>
<path class="st0" d="M208.9,207.6c0-0.5,0.1-0.9,0.2-1.4c0.3-2.3,0.7-4.6,1-7c0.4-2.5,0.8-5,1.1-7.6c0.4-2.8,0.8-5.6,1.2-8.4
	c0.4-2.5,0.8-5,1.1-7.6c0-0.3,0.1-0.7,0.1-1c0-0.2,0.1-0.3,0.3-0.3c0,0,0,0,0,0c0.4,0,0.7-0.1,1.1-0.1c2-0.1,4.1-0.1,6.1,0.1
	c0.4,0,0.4,0,0.4,0.4l0.5,3.5c0.2,1.4,0.4,2.9,0.6,4.3s0.4,2.8,0.6,4.1l0.7,5.1c0.2,1.4,0.4,2.8,0.6,4.2s0.4,2.8,0.6,4.1
	s0.4,2.8,0.6,4.1c0.1,0.9,0.2,1.7,0.4,2.6c0.1,0.2,0.1,0.5,0,0.7c-0.5,0.1-4.4,0.1-5.1,0c-0.1-0.2-0.1-0.3-0.1-0.5
	c-0.1-1.1-0.3-2.2-0.4-3.3c0-0.3-0.2-0.6-0.5-0.8c-1.1-0.7-2.2-1.3-3.5-1.7c-0.2,0-0.4-0.1-0.6-0.2c-0.2-0.2,0-0.4,0-0.6
	c0.1-0.6,0.2-1.2,0.3-1.8c0-0.3,0.1-0.4,0.4-0.4h2.3h0.6c-0.1-0.4-0.1-0.8-0.1-1.1c-0.3-2.2-0.6-4.4-0.9-6.6l-0.9-6.7
	c0-0.1,0-0.1-0.1-0.2c0,0-0.1-0.1-0.1-0.1c0,0-0.1,0-0.1,0.1c0,0.1-0.1,0.2-0.1,0.2c-0.2,1.7-0.5,3.4-0.7,5.1s-0.5,3.5-0.8,5.3
	l-0.7,5.3c-0.3,2.1-0.6,4.1-0.9,6.2l-0.2,1.6c0,0.3-0.1,0.3-0.3,0.3H209C209,207.7,208.9,207.6,208.9,207.6z"/>
<path class="st0" d="M157.7,167.9c-1.7,0.1-3.5,0.1-5.2,0c-0.1-0.5-0.2-1.1-0.3-1.6c-0.1-0.8-0.2-1.5-0.3-2.3c0-0.3-0.2-0.6-0.4-0.8
	c-1-0.7-2.1-1.3-3.3-1.6l-0.7-0.2c-0.1,0-0.1-0.1-0.1-0.2c0,0,0,0,0,0c0.1-0.8,0.2-1.6,0.4-2.4c0-0.2,0.1-0.3,0.4-0.3h2.3
	c0.2,0,0.5,0,0.7-0.1c0-0.4-0.1-0.9-0.1-1.3c-0.2-1.8-0.5-3.6-0.8-5.5s-0.5-3.5-0.7-5.3c-0.1-0.7-0.2-1.5-0.3-2.2
	c0-0.1,0-0.2-0.1-0.3c0,0-0.1-0.1-0.1-0.1c0,0-0.1,0-0.1,0.1c0,0.1-0.1,0.2-0.1,0.3c-0.2,1.7-0.5,3.4-0.7,5.1l-0.8,5.3l-0.7,5.3
	l-0.8,5.3c-0.1,0.8-0.2,1.5-0.3,2.3c0,0.1,0,0.2,0,0.3c0,0.1-0.1,0.2-0.2,0.2h-4.9c-0.1,0-0.1,0-0.2-0.1c0-0.4,0.1-0.9,0.1-1.3
	c0.3-2,0.6-4,0.9-6l0.9-5.8c0.3-1.9,0.6-3.9,0.9-5.8s0.6-3.9,0.9-5.8l1-6.6c0.1-0.5,0.2-1,0.2-1.5c0-0.3,0.1-0.3,0.4-0.4h0.3
	c2.2-0.2,4.4-0.2,6.6,0c0.1,0,0.3,0,0.4,0.1c0.1,0,0.2,0.1,0.2,0.2c0.1,0.5,0.1,1,0.2,1.4c0.4,2.6,0.7,5.3,1.1,7.9
	c0.3,2.3,0.7,4.6,1,7c0.3,2.4,0.7,4.7,1,7c0.4,2.3,0.7,4.6,1,7c0.1,0.7,0.2,1.3,0.3,2C157.6,167.5,157.6,167.7,157.7,167.9z"/>
<path class="st0" d="M97.3,191v-15.8c0-0.9-0.1-0.8,0.8-0.8c2.3,0,4.5,0,6.8,0c1.3,0,2.5,0.2,3.7,0.6c0.7,0.2,1.4,0.6,2,1.1
	c1.2,0.9,1.9,2.4,1.9,3.9v12.4c0,0.8-0.1,1.5-0.4,2.2c-0.4,0.9-1.1,1.7-2,2.2c-1,0.6-2,1-3.1,1.2c-1.1,0.2-2.1,0.2-3.2,0.1
	c-0.2,0-0.3,0-0.3-0.3v-2.3c0-0.2,0.1-0.3,0.2-0.3c0.6-0.2,1.2-0.5,1.8-0.9c0.5-0.3,1-0.7,1.4-1.1c0.2-0.2,0.3-0.5,0.3-0.8
	c0-0.5,0-1,0-1.5c0-3.5,0-7,0-10.4c0-0.8,0.1-0.7-0.7-0.9c-0.4-0.1-0.9-0.2-1.3-0.2h-2.4c-0.3,0-0.3,0-0.3,0.3v27.1
	c0,0.9,0.1,0.8-0.8,0.8h-4.3c-0.1,0-0.2-0.1-0.2-0.2c0-0.2,0-0.4,0-0.6L97.3,191z"/>
<path class="st0" d="M158.4,193.5v-13.2c0-0.2,0-0.4,0-0.6c0-0.1-0.1-0.2-0.2-0.2c0,0,0,0,0,0h-4.8c-0.1,0-0.2-0.1-0.2-0.2v-4.4
	c0-0.1,0-0.1,0-0.2c0-0.1,0.1-0.2,0.2-0.2c0,0,0,0,0,0h15c0.3,0,0.4,0,0.4,0.3v4c0,0.1,0,0.3,0,0.5c0,0.1-0.1,0.2-0.2,0.2
	c0,0,0,0,0,0h-4.4c-0.2,0-0.3,0-0.5,0c0,0-0.1,0.1-0.1,0.1c0,0.1,0,0.1,0,0.2v27c0,0.9,0.1,0.8-0.8,0.8h-4.2c-0.1,0-0.2-0.1-0.2-0.2
	c0,0,0,0,0,0c0-0.2,0-0.4,0-0.6V193.5z"/>
<path class="st0" d="M242.6,202.6c0.2,0.1,0.1,0.3,0.1,0.4c-0.1,0.5-0.1,1.1-0.1,1.6c0,0.9-0.1,1.7-0.3,2.6v0.2
	c0,0.1-0.1,0.2-0.2,0.2H230c-0.6,0-0.6,0-0.6-0.6v-11.7c0-6.7,0-13.3,0-20c0-1-0.1-0.9,0.9-0.9h4.1c0.1,0,0.2,0.1,0.2,0.2
	c0,0,0,0,0,0c0,0.2,0,0.4,0,0.6c0,8.8,0,17.7,0,26.5c0,0.3-0.1,0.6,0.1,0.8s0.5,0.1,0.8,0.1L242.6,202.6z"/>
<path class="st0" d="M97.3,151.4v-16.2c0-0.2,0-0.3,0.3-0.3h4.4c0.5,0,0.5,0,0.5,0.5v27.4c0,0.2,0,0.3,0.3,0.3h7.4
	c0.2,0,0.3,0.1,0.3,0.3c0,0.6-0.1,1.3-0.1,1.9c-0.1,0.6-0.1,1.3-0.2,2c0,0.2-0.1,0.4-0.1,0.5c0,0.1-0.1,0.3-0.2,0.3c0,0,0,0-0.1,0
	c-0.2,0-0.3,0-0.5,0H97.5c-0.2,0-0.2-0.1-0.2-0.3V151.4z"/>
<path class="st0" d="M112.7,151.4v-15.8c0-0.9-0.1-0.8,0.7-0.8h3.8c0.2,0,0.4,0,0.5,0c0.1,0,0.2,0.1,0.2,0.2c0,0.2,0,0.3,0,0.5v32
	c0,0.5,0,0.5-0.5,0.5h-4.5c-0.2,0-0.2-0.1-0.2-0.3V151.4L112.7,151.4z"/>
<path class="st0" d="M131.9,26.2l-0.5-0.2c0,0-0.1-0.1,0.1-0.1h0.7V26h-0.2C132,26,131.9,26.1,131.9,26.2z"/>
<path class="st0" d="M131.9,26.2c0-0.1,0-0.1,0.1-0.1h0.2c4.5,0.7,8.8,1.8,13.1,3.2C157,33,167.9,39,177.3,46.9
	c6.9,5.8,12.9,12.6,17.8,20.1l0.2,0.3c0.1,0.1,0.1,0.2-0.1,0.3c-0.2,0.1-0.3,0.2-0.5,0.3l-10.5,5.9l-0.7,0.4
	c0.1,0.2,0.3,0.4,0.4,0.6c3.9,5.6,7.4,11.4,10.5,17.4c5.1,10,9,20.5,11.7,31.4c0.9,3.6,1.6,7.2,2.2,10.9c0.4,2.5,0.8,5,1.1,7.6
	c0.3,2.9,0.6,5.7,0.7,8.6c0.2,3.2,0.2,6.4,0.2,9.6c0,2.4-0.1,4.8-0.3,7.2s-0.4,4.5-0.8,6.8c0,0.1,0,0.3-0.1,0.3
	c-0.1-1.2-0.3-2.3-0.4-3.5c-0.3-2-0.6-4-1-6.1c-0.6-3.2-1.3-6.5-2.1-9.7c-2.4-10-5.6-19.9-9.5-29.5c-5.6-13.7-12.7-26.8-21.2-38.9
	c-3.9-5.5-8-10.7-12.5-15.7l-0.4-0.5c0.2-0.2,0.4-0.3,0.6-0.4L174,64c0.2-0.1,0.4-0.2,0.6-0.4l-0.4-0.6c-3.4-4.5-7.1-8.9-11.1-12.9
	c-8.1-8.3-17.2-15.5-27.1-21.6c-1.2-0.7-2.4-1.4-3.6-2.1C132.2,26.3,132.1,26.2,131.9,26.2z"/>
<path class="st0" d="M150.9,78c0.2,0,0.4,0.2,0.5,0.4c2.8,2.6,5.5,5.3,8,8.2c5.1,5.7,9.7,11.9,13.6,18.5c0.4,0.7,0.8,1.3,1.1,2
	c0.1,0.2,0.1,0.4,0,0.5c-0.5,0.7-1.1,1.4-1.6,2.1c-0.2,0.2-0.2,0.2-0.6,0.1l-5.4-1.8l-9.6-3.3l-0.2-0.1c-0.3-0.1-0.5-0.3-0.5-0.5
	c-0.3-1.6-0.7-3.2-1-4.8L153.2,89c-0.8-3.6-1.5-7.2-2.3-10.8C150.9,78.1,150.9,78.1,150.9,78z"/>
<rect x="89" y="19" class="st1" width="162" height="196"/>
</svg>
