<?xml version="1.0" standalone="no"?>
<!DOCTYPE svg PUBLIC "-//W3C//DTD SVG 20010904//EN"
 "http://www.w3.org/TR/2001/REC-SVG-20010904/DTD/svg10.dtd">
<svg version="1.0" xmlns="http://www.w3.org/2000/svg"
 width="1688.000000pt" height="566.000000pt" viewBox="0 0 1688.000000 566.000000"
 preserveAspectRatio="xMidYMid meet">

<g transform="translate(0.000000,566.000000) scale(0.100000,-0.100000)"
fill="#000000" stroke="none">
<path d="M1333 5635 c-7 -8 -13 -31 -13 -52 0 -21 -7 -47 -15 -57 -8 -11 -15
-34 -15 -52 0 -18 -4 -35 -9 -38 -5 -4 -12 -29 -16 -56 -4 -28 -11 -50 -16
-50 -5 0 -9 -12 -9 -27 0 -16 -7 -41 -15 -57 -8 -15 -15 -43 -15 -60 0 -18 -5
-37 -12 -44 -6 -6 -15 -30 -19 -54 -14 -80 -31 -143 -40 -152 -5 -6 -9 -25 -9
-42 0 -18 -7 -39 -15 -48 -8 -8 -15 -32 -15 -54 0 -23 -6 -45 -15 -52 -8 -7
-15 -28 -15 -46 0 -19 -4 -42 -9 -52 -17 -35 -41 -120 -41 -148 0 -16 -7 -38
-15 -48 -8 -11 -15 -34 -15 -52 0 -18 -4 -36 -10 -39 -5 -3 -10 -18 -10 -33 0
-15 -7 -40 -15 -56 -8 -15 -15 -38 -15 -50 0 -11 -7 -34 -15 -50 -8 -15 -15
-42 -15 -60 0 -17 -7 -40 -15 -50 -8 -11 -15 -37 -15 -58 0 -21 -4 -38 -9 -38
-5 0 -11 -22 -15 -50 -4 -27 -11 -52 -16 -55 -6 -3 -10 -23 -10 -44 0 -22 -6
-44 -15 -51 -8 -7 -15 -25 -15 -40 0 -15 -7 -41 -15 -56 -8 -16 -15 -38 -15
-48 0 -11 -4 -33 -9 -50 -5 -17 -17 -58 -26 -91 -9 -33 -23 -80 -31 -105 -8
-25 -14 -54 -14 -66 0 -11 -7 -29 -15 -40 -8 -10 -15 -36 -15 -56 0 -21 -4
-38 -10 -38 -5 0 -10 -12 -10 -27 0 -16 -7 -41 -15 -57 -8 -15 -15 -44 -15
-63 0 -19 -7 -41 -15 -49 -8 -9 -15 -32 -15 -53 0 -21 -3 -41 -7 -45 -10 -9
-33 -97 -40 -149 -3 -21 -11 -41 -19 -44 -8 -3 -14 -20 -14 -42 0 -20 -7 -45
-15 -55 -8 -11 -15 -37 -15 -57 0 -21 -4 -41 -10 -44 -5 -3 -10 -18 -10 -33 0
-15 -7 -40 -15 -56 -8 -15 -15 -42 -15 -60 0 -17 -7 -40 -15 -50 -8 -11 -15
-37 -15 -58 0 -21 -4 -38 -10 -38 -5 0 -12 -17 -15 -37 -4 -21 -10 -47 -14
-58 -11 -27 -31 -103 -38 -140 -2 -16 -11 -44 -19 -62 -8 -17 -14 -45 -14 -61
0 -17 -5 -34 -10 -37 -6 -3 -10 -18 -10 -33 0 -15 -7 -40 -15 -56 -8 -15 -15
-43 -15 -61 0 -18 -7 -38 -15 -45 -9 -7 -15 -29 -15 -50 0 -21 -5 -40 -10 -42
-6 -2 -13 -21 -16 -43 -3 -22 -9 -49 -13 -60 -14 -35 -33 -108 -38 -150 -3
-22 -10 -43 -15 -46 -6 -4 -13 -27 -15 -53 -3 -25 -12 -51 -19 -57 -8 -6 -14
-26 -14 -45 0 -18 -4 -35 -9 -38 -4 -3 -11 -28 -15 -56 -4 -27 -11 -50 -16
-50 -6 0 -10 -57 -10 -140 0 -86 4 -140 10 -140 5 0 13 -18 16 -40 4 -22 10
-40 15 -40 5 0 9 -11 9 -24 0 -14 6 -31 13 -38 7 -7 16 -21 20 -30 3 -10 11
-18 17 -18 5 0 10 -9 10 -20 0 -11 7 -23 15 -26 8 -4 15 -10 15 -15 0 -13 58
-69 70 -69 6 0 10 -7 10 -15 0 -8 7 -15 15 -15 8 0 15 -7 15 -15 0 -8 6 -15
14 -15 8 0 16 -3 18 -8 5 -11 103 -72 116 -72 7 0 12 -4 12 -10 0 -5 8 -10 18
-10 10 0 26 -6 37 -14 11 -7 32 -16 48 -20 15 -3 27 -11 27 -16 0 -6 12 -10
28 -10 15 0 36 -6 47 -14 11 -7 38 -16 60 -20 22 -3 77 -11 123 -18 45 -6 82
-15 82 -20 0 -4 623 -8 1385 -8 790 0 1385 4 1385 9 0 5 56 12 125 16 69 4
128 11 131 16 3 5 30 9 61 9 30 0 69 6 86 14 18 8 48 17 67 19 44 7 123 30
130 38 3 3 16 9 30 13 29 8 69 25 90 37 8 5 22 12 30 16 8 4 21 13 28 20 7 7
20 13 28 13 8 0 14 5 14 10 0 6 7 10 15 10 8 0 15 7 15 15 0 8 7 15 15 15 8 0
15 7 15 15 0 8 5 15 11 15 14 0 39 25 39 39 0 6 7 11 15 11 8 0 15 7 15 15 0
8 7 15 15 15 8 0 15 7 15 15 0 8 5 15 10 15 6 0 10 6 10 14 0 8 6 21 13 28 24
27 32 43 103 194 13 28 24 59 24 70 0 10 7 28 15 38 8 11 15 35 15 53 0 18 5
33 10 33 6 0 10 11 10 25 0 14 7 42 15 62 8 19 15 50 15 67 0 17 7 40 15 50 8
11 15 34 15 50 0 17 7 40 15 50 8 11 15 34 15 52 0 18 4 36 10 39 6 3 10 18
10 33 0 15 7 40 15 56 8 15 15 43 15 60 0 18 7 41 15 52 8 10 15 36 15 57 0
20 4 37 9 37 5 0 11 23 15 50 4 28 11 50 16 50 6 0 10 11 10 25 0 14 7 42 15
62 8 19 15 50 15 67 0 17 7 40 15 50 8 11 15 33 15 48 0 16 4 36 9 46 9 17 26
77 40 142 4 19 13 45 19 57 7 12 12 34 12 50 0 15 7 37 15 47 8 11 15 34 15
52 0 18 4 35 9 38 4 3 11 28 15 56 4 27 11 50 16 50 6 0 10 20 10 44 0 24 5
46 11 48 5 2 13 24 16 48 3 25 9 50 13 55 4 6 11 27 14 49 4 21 11 46 16 55 5
9 12 33 15 54 3 20 10 37 15 37 6 0 10 17 10 38 0 21 7 47 15 58 8 10 15 36
15 56 0 20 4 39 9 42 4 3 11 27 14 53 3 26 10 49 16 51 6 2 11 20 11 40 0 20
7 46 15 56 8 11 15 35 15 54 0 18 7 40 15 48 8 9 15 31 15 50 0 19 4 42 9 52
17 35 41 120 41 148 0 16 7 38 15 48 8 11 15 34 15 52 0 18 5 36 10 39 6 3 10
18 10 33 0 15 7 40 15 56 8 15 15 38 15 50 0 11 7 34 15 50 8 15 15 42 15 60
0 17 7 40 15 50 8 11 15 37 15 58 0 21 5 38 10 38 6 0 10 11 10 25 0 14 7 42
15 62 8 19 15 49 15 65 0 16 7 36 15 44 8 9 15 30 15 47 1 18 7 43 15 57 8 14
14 39 15 57 0 17 4 35 10 38 6 3 10 18 10 33 0 15 7 40 15 56 8 15 15 43 15
60 0 18 7 41 15 52 8 10 15 33 15 49 0 17 7 39 15 49 8 11 15 33 15 48 0 16 4
36 9 46 12 24 32 100 38 147 3 22 10 43 15 46 5 3 12 26 15 50 3 24 9 49 13
54 4 6 11 29 15 52 4 24 11 45 16 49 5 3 9 20 9 39 0 18 7 40 15 49 8 8 15 32
15 53 0 21 7 47 15 57 8 11 15 34 15 51 0 17 4 35 9 41 4 5 11 24 14 42 l7 32
-954 0 -953 0 -17 -43 c-9 -23 -16 -52 -16 -64 0 -11 -7 -34 -15 -49 -8 -16
-15 -43 -15 -60 0 -17 -7 -37 -15 -44 -9 -7 -15 -29 -15 -51 0 -22 -4 -39 -10
-39 -5 0 -10 -11 -10 -25 0 -14 -7 -42 -15 -62 -8 -19 -15 -50 -15 -68 0 -19
-5 -35 -10 -37 -6 -2 -13 -21 -16 -43 -3 -22 -9 -49 -14 -60 -13 -30 -31 -105
-37 -147 -3 -21 -11 -42 -19 -49 -8 -6 -14 -26 -14 -43 0 -17 -7 -40 -15 -50
-8 -11 -15 -37 -15 -57 0 -21 -4 -40 -9 -43 -4 -3 -11 -28 -15 -56 -4 -27 -11
-50 -16 -50 -6 0 -10 -17 -10 -37 0 -21 -7 -47 -15 -57 -8 -11 -15 -37 -15
-57 0 -21 -4 -39 -10 -41 -5 -1 -14 -23 -19 -48 -5 -25 -17 -70 -26 -100 -9
-30 -20 -73 -24 -95 -4 -22 -13 -50 -19 -62 -7 -12 -12 -35 -12 -52 0 -17 -4
-31 -9 -31 -4 0 -11 -21 -14 -47 -3 -26 -10 -49 -16 -51 -6 -2 -11 -15 -11
-28 0 -14 -7 -41 -15 -61 -8 -19 -15 -50 -15 -67 0 -17 -7 -40 -15 -50 -8 -11
-15 -34 -15 -52 0 -18 -4 -36 -10 -39 -5 -3 -10 -18 -10 -33 0 -15 -7 -40 -15
-56 -8 -15 -15 -42 -15 -60 0 -17 -7 -40 -15 -50 -8 -11 -15 -34 -15 -50 0
-17 -7 -40 -15 -50 -8 -11 -15 -37 -15 -58 0 -21 -4 -38 -9 -38 -5 0 -12 -22
-16 -50 -4 -27 -11 -52 -16 -56 -5 -3 -9 -20 -9 -37 0 -18 -7 -41 -15 -51 -8
-11 -15 -37 -15 -57 0 -21 -4 -40 -9 -43 -5 -3 -12 -26 -15 -51 -4 -24 -11
-47 -17 -50 -5 -4 -9 -18 -9 -33 0 -15 -7 -40 -15 -56 -8 -15 -15 -40 -15 -55
-1 -14 -7 -37 -15 -51 -8 -14 -14 -39 -15 -57 0 -17 -5 -35 -10 -38 -5 -3 -10
-18 -10 -33 0 -15 -7 -40 -15 -56 -8 -15 -15 -42 -15 -60 0 -17 -7 -40 -15
-50 -8 -11 -15 -34 -15 -50 0 -17 -7 -40 -15 -50 -8 -11 -15 -33 -15 -48 0
-16 -4 -36 -9 -46 -12 -24 -32 -100 -38 -147 -3 -22 -10 -46 -16 -53 -9 -12
-13 -24 -37 -137 -6 -27 -15 -51 -20 -53 -6 -2 -10 -15 -10 -28 0 -14 -7 -41
-15 -61 -8 -19 -15 -43 -15 -53 0 -10 -7 -20 -15 -24 -8 -3 -15 -15 -15 -26 0
-11 -4 -20 -10 -20 -5 0 -10 -5 -10 -11 0 -13 -98 -109 -111 -109 -5 0 -9 -4
-9 -10 0 -5 -9 -10 -20 -10 -11 0 -23 -7 -26 -15 -4 -8 -18 -15 -34 -15 -16 0
-35 -7 -44 -15 -12 -12 -50 -15 -215 -15 -126 0 -201 4 -201 10 0 5 -18 13
-39 16 -22 4 -42 13 -45 20 -3 8 -15 14 -27 14 -26 0 -109 84 -109 110 0 11
-4 20 -9 20 -10 0 -29 68 -38 133 -3 23 -1 37 6 37 6 0 11 15 11 33 0 17 7 45
15 61 8 15 15 42 15 60 0 17 7 40 15 50 8 11 15 37 15 57 0 21 4 40 9 43 5 3
12 26 15 51 4 24 11 47 17 50 5 4 9 23 9 44 0 22 6 44 15 51 8 7 15 29 15 49
0 20 7 45 15 55 8 11 15 33 15 48 0 16 4 36 9 46 12 24 32 100 38 147 3 22 12
49 19 60 8 11 14 31 14 45 0 15 7 35 15 46 8 10 15 36 15 57 0 20 4 37 9 37 5
0 11 22 15 50 4 27 11 52 16 55 6 3 10 24 10 45 0 21 5 40 11 42 6 2 14 27 17
56 2 29 8 52 13 52 5 0 9 11 9 25 0 14 7 42 15 62 8 19 15 49 15 65 0 16 7 36
15 44 8 9 15 28 15 44 0 15 7 41 15 56 8 16 15 43 15 61 0 17 5 35 10 38 6 3
10 18 10 33 0 15 7 40 15 56 8 15 15 43 15 61 0 18 7 38 15 45 8 7 15 29 15
49 0 20 7 45 15 55 8 11 15 37 15 58 0 21 5 38 10 38 6 0 10 11 10 25 0 14 7
42 15 62 8 19 15 50 15 68 0 19 5 35 10 37 6 2 13 21 16 43 3 22 9 49 14 60 8
19 15 47 41 150 6 22 14 44 20 50 5 5 9 25 9 45 0 20 7 45 15 56 8 10 15 33
15 51 0 17 4 34 9 37 4 3 11 28 15 56 4 27 11 50 16 50 6 0 10 17 10 38 1 20
7 48 15 62 8 14 14 39 15 57 0 17 5 33 11 35 6 2 13 25 16 51 3 26 10 50 14
53 5 3 9 17 9 32 0 15 7 40 15 56 8 15 15 43 15 60 0 18 5 37 12 44 6 6 15 30
19 54 17 91 32 148 39 148 4 0 10 23 14 50 4 28 11 50 16 50 6 0 10 20 10 44
0 26 6 48 15 56 8 7 15 29 15 49 0 20 4 41 9 46 4 6 11 25 14 43 l7 32 -958 0
c-814 -1 -959 -3 -969 -15z"/>
<path d="M7100 5635 c0 -8 -4 -23 -9 -33 -17 -35 -41 -120 -41 -148 0 -16 -7
-38 -15 -48 -8 -11 -15 -33 -15 -48 0 -16 -4 -36 -9 -46 -6 -9 -13 -34 -16
-54 -3 -21 -10 -38 -14 -38 -5 0 -11 -22 -15 -50 -4 -27 -11 -52 -16 -55 -6
-3 -10 -23 -10 -43 0 -20 -7 -46 -15 -56 -8 -11 -15 -37 -15 -58 0 -21 -4 -38
-10 -38 -5 0 -10 -11 -10 -25 0 -14 -7 -42 -15 -62 -8 -19 -15 -50 -15 -68 0
-20 -6 -35 -15 -39 -10 -3 -15 -19 -15 -44 0 -21 -7 -47 -15 -58 -8 -10 -15
-33 -15 -49 0 -17 -4 -35 -9 -40 -4 -6 -11 -31 -15 -57 l-6 -48 2075 0 2075 0
0 29 c0 16 7 42 15 57 8 16 15 38 15 49 0 11 7 29 15 39 8 11 15 37 15 57 0
21 5 41 10 44 6 3 10 18 10 33 0 15 7 40 15 56 8 15 15 42 15 60 0 17 7 40 15
50 8 11 15 37 15 58 0 21 5 38 10 38 6 0 10 12 10 26 0 14 6 40 14 57 15 37
34 104 45 162 4 22 13 50 19 62 7 12 12 35 12 52 0 16 5 33 10 36 6 3 10 18
10 33 0 15 7 40 15 56 8 15 15 43 15 61 0 19 7 40 15 49 8 8 15 24 15 35 l0
21 -2075 0 c-1846 0 -2075 -2 -2075 -15z"/>
<path d="M12945 5640 c-3 -5 -45 -10 -93 -10 -48 0 -105 -5 -127 -12 -22 -6
-67 -13 -100 -15 -33 -3 -64 -9 -70 -13 -5 -4 -31 -11 -57 -15 -27 -4 -48 -11
-48 -16 0 -5 -18 -12 -40 -15 -22 -4 -43 -11 -46 -15 -3 -5 -16 -9 -29 -9 -13
0 -30 -7 -39 -15 -8 -8 -23 -15 -34 -15 -11 0 -22 -7 -26 -15 -3 -8 -12 -15
-21 -15 -8 0 -15 -4 -15 -10 0 -5 -6 -10 -14 -10 -21 0 -170 -151 -187 -188
-8 -18 -18 -32 -24 -32 -11 0 -17 -10 -48 -77 -10 -21 -25 -51 -33 -66 -8 -16
-14 -37 -14 -47 0 -9 -7 -23 -15 -30 -8 -7 -15 -25 -15 -40 0 -15 -7 -33 -15
-40 -8 -7 -15 -28 -15 -46 0 -19 -4 -34 -9 -34 -5 0 -11 -22 -15 -50 -4 -27
-11 -52 -16 -55 -6 -3 -10 -23 -10 -43 0 -20 -7 -46 -15 -56 -8 -11 -15 -37
-15 -58 0 -21 -4 -38 -10 -38 -5 0 -10 -11 -10 -25 0 -14 -7 -42 -15 -62 -8
-19 -15 -50 -15 -68 0 -18 -7 -38 -15 -45 -8 -7 -15 -27 -15 -44 -1 -17 -7
-42 -15 -56 -8 -14 -14 -40 -15 -57 0 -18 -4 -33 -10 -33 -5 0 -10 -15 -10
-32 0 -18 -7 -46 -15 -62 -8 -15 -15 -42 -15 -60 0 -17 -7 -40 -15 -50 -8 -11
-15 -35 -15 -54 0 -18 -7 -40 -15 -48 -8 -9 -15 -29 -15 -45 0 -16 -4 -37 -9
-47 -10 -19 -30 -93 -38 -137 -2 -16 -11 -44 -19 -62 -8 -17 -14 -43 -14 -57
0 -15 -4 -34 -9 -44 -8 -16 -15 -41 -42 -147 -6 -22 -14 -44 -20 -49 -5 -6 -9
-26 -9 -45 0 -20 -7 -45 -15 -55 -8 -11 -15 -34 -15 -52 0 -18 -4 -35 -9 -38
-4 -3 -11 -28 -15 -56 -4 -27 -11 -50 -16 -50 -6 0 -10 -20 -10 -44 0 -24 -5
-46 -11 -48 -5 -2 -13 -24 -16 -48 -3 -25 -12 -54 -19 -65 -8 -11 -14 -28 -14
-39 0 -11 -4 -33 -9 -50 -5 -17 -17 -58 -26 -91 -9 -33 -23 -80 -31 -105 -8
-25 -14 -55 -14 -67 0 -12 -4 -24 -9 -27 -4 -3 -11 -27 -14 -53 -3 -26 -10
-49 -16 -51 -6 -2 -11 -15 -11 -28 0 -14 -7 -41 -15 -61 -8 -19 -15 -49 -15
-65 0 -16 -7 -36 -15 -44 -8 -9 -15 -32 -15 -53 0 -21 -3 -41 -7 -45 -9 -8
-31 -92 -40 -146 -3 -19 -12 -44 -19 -55 -8 -11 -14 -34 -14 -51 0 -17 -7 -37
-15 -44 -9 -7 -15 -29 -15 -51 0 -21 -4 -41 -10 -44 -5 -3 -10 -18 -10 -33 0
-15 -7 -40 -15 -56 -8 -15 -15 -42 -15 -60 0 -17 -7 -40 -15 -50 -8 -11 -15
-37 -15 -58 0 -21 -4 -38 -9 -38 -5 0 -11 -22 -15 -50 -4 -27 -11 -52 -16 -55
-6 -3 -10 -18 -10 -33 -1 -15 -7 -38 -15 -52 -8 -14 -15 -41 -15 -60 0 -19 -7
-44 -15 -54 -8 -11 -15 -39 -15 -63 0 -24 -4 -43 -10 -43 -6 0 -10 -43 -10
-110 0 -67 4 -110 10 -110 6 0 10 -17 10 -38 0 -21 7 -47 15 -58 8 -10 15 -29
15 -41 0 -13 5 -23 10 -23 6 0 10 -6 10 -14 0 -8 6 -21 13 -28 7 -7 24 -31 37
-52 30 -50 114 -135 163 -165 20 -12 37 -27 37 -32 0 -5 9 -9 19 -9 11 0 22
-4 26 -9 6 -11 148 -81 164 -81 6 0 11 -4 11 -10 0 -5 15 -10 33 -10 17 0 41
-7 51 -15 11 -8 37 -15 57 -15 21 0 40 -4 43 -9 3 -5 42 -12 86 -16 44 -4 80
-11 80 -16 0 -5 547 -9 1315 -9 726 0 1315 4 1315 9 0 4 60 11 132 15 73 4
135 11 138 16 3 4 38 9 79 12 46 2 76 8 79 16 2 7 20 12 40 12 36 0 204 57
210 72 2 4 14 8 27 8 12 0 25 7 29 15 3 8 11 15 18 15 7 0 25 11 40 25 15 14
30 25 33 25 11 0 95 87 95 99 0 6 7 11 15 11 8 0 15 7 15 15 0 8 4 15 8 15 4
0 19 18 32 40 14 22 28 40 33 40 4 0 7 8 7 19 0 10 7 24 15 31 8 7 15 23 15
36 0 13 4 24 9 24 5 0 12 13 16 30 4 16 11 30 16 30 5 0 9 10 9 23 0 13 7 32
15 43 8 10 15 29 15 40 0 12 7 35 15 50 8 16 15 41 15 57 0 15 4 35 9 45 10
19 30 93 38 137 2 17 11 44 19 62 8 17 14 43 14 59 0 15 7 35 16 45 12 14 13
22 4 38 l-11 21 -1192 0 c-1034 0 -1196 2 -1213 15 -10 8 -29 15 -41 15 -13 0
-23 4 -23 10 0 5 -11 12 -25 16 -14 3 -25 10 -25 15 0 5 -7 9 -15 9 -8 0 -15
7 -15 15 0 8 -6 15 -12 15 -21 1 -64 72 -79 129 -10 41 -11 61 -1 96 7 25 12
55 12 68 0 12 7 31 15 41 8 11 15 33 15 48 0 16 4 36 9 46 12 23 32 99 38 144
3 21 11 42 19 49 8 6 14 29 14 50 0 21 4 40 9 43 4 3 11 28 15 56 4 27 11 50
16 50 6 0 10 11 10 25 0 14 7 42 15 62 8 19 15 47 15 62 0 15 5 32 12 39 6 6
15 30 19 54 13 72 30 132 40 142 5 6 9 27 9 47 0 20 7 42 15 49 9 7 15 29 15
50 0 21 5 40 11 42 6 2 13 25 16 51 3 26 10 50 14 53 5 3 9 17 9 32 0 15 7 40
15 56 8 15 15 40 15 55 1 14 7 37 15 51 8 14 14 39 15 57 0 17 5 35 10 38 6 3
10 18 10 32 0 14 6 39 13 56 26 61 47 135 47 164 0 16 5 34 11 40 11 11 19 42
41 153 5 30 14 59 19 64 5 6 9 27 9 47 0 21 7 44 15 53 8 8 15 32 15 53 1 21
7 49 15 63 8 14 14 44 15 68 0 23 5 42 10 42 6 0 10 15 10 33 0 17 7 45 15 61
8 15 15 39 15 52 0 13 4 24 10 24 5 0 12 11 16 25 3 14 12 25 20 25 8 0 14 5
14 11 0 36 163 149 214 149 12 0 28 6 34 13 33 32 230 39 1322 46 1064 6 1075
6 1078 26 2 11 8 24 13 29 5 6 9 25 9 44 0 18 5 43 12 55 13 24 23 71 40 185
6 39 15 72 20 72 22 0 0 177 -32 255 -5 11 -12 30 -15 43 -4 12 -11 22 -16 22
-5 0 -9 10 -9 23 0 12 -14 37 -30 56 -17 18 -30 37 -30 41 0 22 -155 160 -180
160 -5 0 -10 4 -10 8 0 5 -19 18 -42 31 -24 12 -50 26 -58 31 -26 15 -88 40
-99 40 -6 0 -11 5 -11 10 0 6 -10 10 -22 10 -13 0 -36 7 -52 15 -15 8 -41 15
-56 15 -15 0 -41 7 -56 15 -16 8 -55 15 -86 15 -31 0 -60 5 -63 10 -4 7 -437
10 -1265 10 -828 0 -1261 -3 -1265 -10z"/>
<path d="M16580 5530 c0 -5 -8 -10 -18 -10 -21 0 -72 -45 -72 -64 0 -8 -7 -16
-15 -20 -12 -4 -15 -25 -15 -96 0 -55 4 -90 10 -90 6 0 15 -11 20 -25 5 -14
18 -28 27 -32 10 -4 20 -9 23 -12 19 -22 75 -41 118 -41 69 0 116 26 172 97 5
6 12 23 16 37 3 14 10 26 15 26 5 0 9 18 9 40 0 22 -4 40 -9 40 -5 0 -12 15
-15 33 -8 39 -49 88 -95 110 -38 19 -171 24 -171 7z m130 -25 c7 -8 19 -15 27
-15 16 0 40 -21 65 -59 34 -50 12 -210 -29 -211 -6 0 -13 -5 -15 -11 -9 -26
-130 -51 -143 -29 -3 6 -14 10 -23 10 -20 1 -60 35 -84 72 -24 37 -24 129 -1
166 22 34 54 61 71 62 7 0 20 7 28 15 9 8 33 15 53 15 22 0 44 -6 51 -15z"/>
<path d="M16576 5444 c-10 -25 -7 -197 4 -214 8 -13 10 -13 14 0 3 8 7 33 8
55 2 29 8 41 21 43 18 4 57 -28 57 -46 0 -5 11 -22 25 -38 l25 -29 0 33 c0 17
-4 32 -10 32 -19 0 -10 43 15 76 31 41 31 49 -1 79 -23 21 -37 25 -89 25 -48
0 -64 -4 -69 -16z m129 -54 c0 -21 -5 -25 -35 -27 -20 -2 -44 4 -55 13 l-20
15 20 15 c11 8 35 14 55 12 30 -3 35 -7 35 -28z"/>
<path d="M6521 3534 c-7 -9 -16 -36 -19 -60 -2 -25 -9 -47 -13 -50 -5 -3 -9
-17 -9 -32 0 -15 -7 -40 -15 -56 -8 -15 -15 -42 -15 -60 0 -17 -7 -40 -15 -50
-8 -11 -15 -34 -15 -51 0 -17 -7 -40 -15 -51 -8 -10 -15 -33 -15 -51 0 -17 -4
-34 -9 -37 -5 -3 -12 -26 -15 -51 -4 -24 -11 -47 -17 -50 -5 -4 -9 -23 -9 -43
0 -20 -7 -46 -15 -56 -8 -11 -15 -33 -15 -48 0 -16 -4 -36 -9 -46 -13 -26 -32
-102 -38 -150 -3 -24 -11 -46 -19 -49 -8 -3 -14 -20 -14 -42 0 -20 -7 -45 -15
-55 -8 -11 -15 -37 -15 -58 0 -21 -4 -38 -10 -38 -5 0 -10 -15 -10 -32 0 -18
-7 -46 -15 -62 -8 -15 -15 -43 -15 -61 0 -18 -5 -35 -11 -37 -6 -2 -13 -25
-16 -51 -3 -26 -12 -52 -19 -58 -8 -6 -14 -23 -14 -37 0 -26 -5 -45 -34 -138
-9 -29 -16 -60 -16 -71 0 -11 -7 -28 -15 -39 -8 -10 -15 -36 -15 -56 0 -20 -4
-39 -9 -42 -5 -4 -12 -29 -16 -56 -4 -28 -11 -50 -16 -50 -5 0 -9 -17 -9 -39
0 -22 -6 -44 -15 -51 -8 -7 -15 -29 -15 -49 0 -20 -7 -45 -15 -55 -8 -11 -15
-35 -15 -53 0 -18 -4 -41 -9 -51 -15 -30 -41 -119 -41 -140 0 -11 -7 -33 -15
-48 -8 -16 -15 -42 -15 -57 0 -16 -7 -35 -15 -43 -8 -9 -15 -29 -15 -45 0 -16
-4 -37 -9 -47 -12 -24 -32 -100 -38 -147 -3 -22 -10 -43 -15 -46 -5 -3 -11
-23 -14 -45 -3 -21 -9 -48 -13 -59 -17 -44 -40 -122 -46 -157 -4 -21 -11 -38
-16 -38 -5 0 -9 -17 -9 -37 0 -21 -7 -47 -15 -57 -8 -11 -15 -37 -15 -58 0
-21 -4 -38 -9 -38 -5 0 -11 -22 -15 -50 -4 -27 -11 -52 -16 -55 -6 -3 -10 -24
-10 -46 l0 -39 955 0 c846 0 955 2 955 15 0 8 4 23 9 33 11 22 31 96 38 142 3
19 10 41 16 48 6 7 14 32 18 55 12 66 29 130 38 142 5 5 12 29 16 52 4 24 11
45 16 49 5 3 9 22 9 42 0 20 7 46 15 56 8 11 15 33 15 48 0 16 4 36 9 46 13
26 32 102 38 150 3 24 11 46 19 49 8 3 14 20 14 42 0 20 7 45 15 55 8 11 15
37 15 58 0 21 4 38 9 38 5 0 11 22 15 50 4 27 11 52 16 55 6 3 10 24 10 45 0
21 5 40 11 42 5 2 13 24 16 48 3 25 10 51 16 58 9 12 13 24 37 137 6 28 15 52
20 53 6 2 10 20 10 41 0 20 7 46 15 57 8 10 15 36 15 56 0 20 4 39 9 42 5 3
12 26 15 51 4 24 11 47 17 50 5 4 9 23 9 44 0 22 6 44 15 51 8 7 15 29 15 49
0 20 7 45 15 55 8 11 15 34 15 52 0 18 4 35 9 38 4 3 11 23 14 45 10 77 -90
71 1136 71 l1100 0 15 22 c9 12 16 37 16 54 0 18 5 34 11 36 6 2 15 24 20 48
18 101 30 145 39 148 6 2 10 20 10 41 0 20 7 46 15 57 8 10 15 36 15 56 0 20
4 39 9 42 4 3 11 24 15 46 3 23 10 49 15 58 17 36 41 121 41 149 0 16 5 34 11
40 6 6 15 29 20 50 4 21 13 61 19 88 6 28 15 52 20 53 6 2 10 20 10 40 0 21 7
46 15 56 8 11 15 37 15 57 0 21 4 39 9 41 4 1 12 13 15 26 l7 22 -2073 0
c-1867 -1 -2074 -2 -2087 -16z"/>
</g>
</svg>
