<svg xmlns="http://www.w3.org/2000/svg" width="307.578" height="307.578" id="nba"><path fill="#fff" fill-rule="evenodd" d="M0 0h307.578v307.578H0Z"></path><path fill="#cc2229" fill-rule="evenodd" d="M199.193 302.536c1.616-3.051 4.487-12.925-.9-23.337 1.616-5.744-2.694-7-4.487-19.747a28.419 28.419 0 0 0 2.872-13.286c-.359-4.487-3.59-6.641-5.385-10.051-2.872-11.491-4.487-23.7-8.8-34.467-1.435-5.208-5.025-9.7-7.54-14.542-2.513-12.925-3.769-26.747-7.718-38.954a10.332 10.332 0 0 0 1.974-1.975c-2.694-10.95-6.643-26.927-12.387-31.775 1.435-5.385 3.59-11.668 4.308-16.515 2.512-3.41 5.384-7.181 10.95-9.694 2.872 7.9 4.13 17.773 5.744 25.67 3.59 7.9 8.617 14.9 10.053 22.081-9.154 3.59-15.438 12.028-15.438 21.9a22.869 22.869 0 0 0 22.806 22.98 23.294 23.294 0 0 0 21-14v114.527a21.868 21.868 0 0 1-17.053 21.186Z"></path><path fill="#33348e" fill-rule="evenodd" d="M188.449 302.876c-3.59-8.617-1.436-15.8-.718-25.671-.9-4.487-1.616-8.976-2.335-13.283-5.025-7.72-6.82-14.72-8.077-22.978-9.514-8.436-20.645-15.8-28.183-24.952-13.464-12.746-23.337-25.852-30.158-40.572-2.333-.177-4.666-.359-7.181-.359-4.308-11.668-14.181-25.85-13.284-35 .359-8.079 2.872-15.438 5.923-23.7-2.694-.539-5.205.359-8.077-1.257-4.487-2.872-3.769-7.9-3.949-12.387 1.974-8.976 6.822-16.515 10.053-24.593 3.231-7 6.284-14 9.335-20.824 4.308-4.848 7-8.258 12.386-10.592 4.667-.539 9.336.179 14.361-.9 2.154-.718 4.848-1.257 5.746-2.694 2.154-3.053 1.615-6.284 2.513-10.053-2.872-1.615-2.513-9.873.718-12.745 0-5.744 2.333-13.464 7.181-15.438l-41.648-.356a21.682 21.682 0 0 0-21.721 21.722v255.088a21.682 21.682 0 0 0 21.721 21.722Zm-83.3-53.135h9.515l7 22.437v-22.437h8.617v37.518h-9.69l-7.181-22.439v22.439h-8.257Zm26.568 0h11.13c14.54 0 10.771 17.589 5.385 17.948 8.077-.9 9.154 19.57-3.949 19.57h-12.562Zm8.617 6.1v8.436h2.162c3.59 0 3.59-8.436 0-8.436Zm0 14.9v10.412h2.162c4.128 0 3.59-10.412 0-10.412Zm20.465-21h11.497l6.641 37.518h-8.8l-.72-6.641h-6.1l-1.079 6.641h-8.615Zm3.412 24.234h4.485l-2.334-18.671Z"></path><path fill="#cc2229" fill-rule="evenodd" d="M169.523 5.458c6.1 5.744 9.874 14 4.13 24.055 3.59 2.333-2.694 6.463-4.13 9.694-1.794 5.026-7.9 7.9-7.179 9.694a213.308 213.308 0 0 1 22.08 15.976c4.13 5.207 5.744 26.029 8.077 41.826 3.412 9.874 8.258 18.311 10.053 29.44a24.167 24.167 0 0 1 13.643 12.925V26.281A21.681 21.681 0 0 0 194.476 4.56l-24.953.9Z"></path></svg>