<?xml version="1.0" encoding="utf-8"?>
<!-- Generator: Adobe Illustrator 23.0.3, SVG Export Plug-In . SVG Version: 6.00 Build 0)  -->
<svg version="1.2" baseProfile="tiny" id="Layer_1" xmlns="http://www.w3.org/2000/svg" xmlns:xlink="http://www.w3.org/1999/xlink"
	 x="0px" y="0px" viewBox="0 0 1053.1 614.3" xml:space="preserve">
<g id="g3122" transform="translate(0,-378.68855)">
	<g id="g3029" transform="matrix(0.7048565,0,0,0.7048565,298.47211,94.034611)">
		<path id="rect2987" fill="#FFFFFF" d="M-333.8,403.8h204.7c49.7,0,89.7,40,89.7,89.7v692.1c0,49.7-40,89.7-89.7,89.7h-204.7
			c-49.7,0-89.7-40-89.7-89.7V493.5C-423.5,443.8-383.5,403.8-333.8,403.8z"/>
		<path id="path2989" fill="#C8202F" d="M-179.9,563.6l0.3,2.9c6.2,3.6,9.4,6.6,15.7,10.7c16.6,10.5,36.9,29.2,34.4,93.3
			c4.8,14,6.9,41.4,11.1,50.1c8.6,17.3,14.5,28.5,17,44.6c0,0,2.5,25.3,5.8,27.1c17.1,3.9,12.2,5.6,14.6,8.7
			c2.7,3.4,12.6,3.2,12.6,12.5c3.5,4.6,6.2,9.3,8,14.3V494.2c0-38.2-30.9-69.1-68.9-69.1h-65.8c10.5,3.8,16.6,8.3,20.1,15.3
			c8.4,0.7,18.4,19.7,2.8,47.9c6.9,4.8,1.5,11.8-3.4,19.8c-1.5,2.5-3.1,7.2-7.7,6.9c-6.2,12.8-13.3,24.8-18.8,25.5
			c-1.5,2-2.7,7.4-0.3,10C-194.5,554.2-184.8,559-179.9,563.6L-179.9,563.6z"/>
		<path id="path2991" fill="#C8202F" d="M-118.4,1253.1l-0.7,0.1c30.2-18.4,11.5-53.2,5.8-73.7l1.1-3.5c1.5-2.8-1.7-9.4-1.7-9.4
			c-3.8-3.1-4.6-20.2-6.6-28.1c-3.2-12.8,5.8-35.1,5.8-42.7c0-7.6-5.8-18-16.1-31.2c-2.5-2.9-10.1-67.7-16.8-84.1
			c-9.4-22.6-12.2-19-23.4-46c-8.6-19-1.8-46.9-21.2-111.7l4.3-4.1c0,0-15.4-56.4-20.5-71.9c-4.9-15.4-14-16.4-14-16.4l0.6-8
			c0.7-2.4,18.8-49.4,20.4-51c0.1-1,26.1-18.8,26.5-16.1c2.1,11.5,12.2,70,16.6,79.3c4.4,9.4,19.4,38,26.3,55.9
			c-26.8,6.6-46.9,30.9-46.9,59.7c0,34,27.5,61.6,61.5,61.6c26,0,48.4-16.1,57.4-38.9l-0.1,312C-60.4,1219.5-85.3,1248-118.4,1253.1
			L-118.4,1253.1z"/>
		<path id="path2993" fill="#1D4488" d="M-216.8,425.2c-22.5,8.7-25.5,18.4-26.4,49.6c-3.8,0.4-11.7-3.2-9,15.7
			c0,0,1.4,12.6,6.5,10.5c-3.9,27.5-0.8,34.4-19.1,36.4c-3.9,0.4-8.7,0.7-14.6,1l-1.8,2.5c-25,2.4-37.4,0.8-53.5,22
			c-6.2,8.1-12.8,19.7-20.9,36.1c0,0-7.4,18.4-9.7,26c-7.2,15-24.7,48.3-29.9,69.6c-1.7,7.3-4.9,9.5-0.3,20.1
			c6.9,15.2-4.5,19.1,34.5,18v9c0,0-10.4,9-12.6,14.3c-2.1,5.5-8.1,32.3-7.9,45.1c0.7,33.3,27.8,61.1,35.8,94.2l18.1,2.5
			c9.8,22.6,52.8,83.5,62.7,93.3c0.1,0.1,0.3,0.3,0.4,0.4c2.2,5.8,13.3,12.9,19.8,20.1c3.9,3.8,22,23.4,46.2,42.1
			c8.9,6.9,18.4,13.6,28.4,19.4c-0.3-0.1,5.9,12.2,9,22.3c-12.4,10,11.7,28.2,19,58.4c0.4,4.1-7,8.1,4.1,18.1
			c-0.7,45.6-14.6,69.5,8.7,82.1h-205.4c-37.3-0.8-67.5-31.4-67.5-68.9V494.2c0-37.8,30.2-68.2,67.5-69.1H-216.8z"/>
	</g>
	<g id="g3102" transform="matrix(5.917629,0,0,6.6180124,-1431.5389,-2152.8646)">
		<path id="rect3035" fill-rule="evenodd" fill="#1D4488" d="M300,384.8V473h10.7c0-22.7,0.6-45.5-1-68l12.3,68h15.3v-88.2h-10.6
			c-0.2,23.4,0.7,46.4,2.5,69.3l-12.8-69.3H300z"/>
		<path id="rect3043" fill-rule="evenodd" fill="#1D4488" d="M392.4,384.7L381.9,473h13l1.7-17.9h8.5l1.7,17.9h13l-10.2-88.3H392.4z
			 M400.9,409.6l3.3,35.2h-6.6L400.9,409.6z"/>
		<path id="path3059" fill="#1D4488" d="M345.5,384.8v88.2h19.1c3.1,0,13.8-2.4,13.8-14.7v-17.6c0-1.9,0-7.7-5.7-11.1
			c3.6,0,5.7-6.2,5.7-11.8v-18.9c0-7.4-5.1-14.2-15.4-14.1H345.5z M357.2,396h5.8c2.7,0,3.5,2.6,3.5,4.6v20.5c0,3.5-1.3,3.8-4,3.8
			h-5.4V396z M357.2,434.6h5.8c2.7,0,3.5,2.6,3.5,4.6v18.3c0,2.4-1.3,4.2-4,4.2l-5.4,0.1V434.6L357.2,434.6z"/>
	</g>
</g>
</svg>
