<svg width="50" height="50" viewBox="0 0 50 50" fill="none" xmlns="http://www.w3.org/2000/svg">
<rect width="50" height="50" rx="14" fill="white"/>
<path d="M36.1002 29.866C35.1481 30.3819 34.5 31.3901 34.5 32.5469C34.5 33.7037 35.1481 34.7119 36.1002 35.2278C36.6647 34.4814 37 33.5527 37 32.5469C37 31.5412 36.6647 30.6124 36.1002 29.866Z" fill="#0090D7"/>
<path d="M33.0937 32.5469C33.0937 31.0174 33.8689 29.6657 35.0469 28.8636C34.3337 28.378 33.4729 28.0938 32.5468 28.0938C31.6208 28.0938 30.76 28.378 30.0469 28.8636C31.2248 29.6658 32 31.0174 32 32.5469C32 34.0763 31.2248 35.4281 30.0469 36.2301C30.76 36.7158 31.6208 37 32.5468 37C33.4729 37 34.3337 36.7158 35.0468 36.2301C33.8689 35.4281 33.0937 34.0763 33.0937 32.5469Z" fill="#0090D7"/>
<path d="M28.9935 29.866C28.429 30.6124 28.0938 31.5412 28.0938 32.5469C28.0938 33.5527 28.429 34.4814 28.9936 35.2278C29.9457 34.7119 30.5937 33.7037 30.5937 32.5469C30.5937 31.3901 29.9456 30.3819 28.9935 29.866Z" fill="#0090D7"/>
<path d="M36.2261 13.7739C35.1485 12.6962 33.3849 12.7513 32.3766 13.8941L19.788 28.1612L21.8388 30.2121L36.106 17.6234C37.2487 16.6151 37.3038 14.8516 36.2261 13.7739Z" fill="#0090D7"/>
<path d="M16.6009 35.3878L20.8134 31.1754L18.8247 29.1866L14.6122 33.3991L14.2003 32.9872C13.9258 32.7127 13.4805 32.7127 13.2059 32.9872C12.9314 33.2618 12.9314 33.707 13.2059 33.9816L16.0184 36.7941C16.1557 36.9313 16.3357 37 16.5156 37C16.6956 37 16.8755 36.9313 17.0128 36.794C17.2874 36.5195 17.2874 36.0743 17.0128 35.7997L16.6009 35.3878Z" fill="#0090D7"/>
</svg>
