<svg width="50" height="50" viewBox="0 0 50 50" fill="none" xmlns="http://www.w3.org/2000/svg">
<rect width="50" height="50" rx="14" fill="white"/>
<path d="M18.1556 36.2633C19.8188 37.2461 21.7276 37.855 23.7662 37.9736V33.0363C21.5307 33.2509 19.4669 34.4361 18.1556 36.2633Z" fill="#F18800"/>
<path d="M23.7662 17.9373V13C21.7276 13.1185 19.8188 13.7274 18.1556 14.7103C19.4669 16.5375 21.5307 17.7227 23.7662 17.9373Z" fill="#F18800"/>
<path d="M25.2338 33.0361V37.9736C27.2726 37.855 29.1816 37.246 30.8448 36.263C29.5326 34.4327 27.4759 33.2498 25.2338 33.0361Z" fill="#F18800"/>
<path d="M32.063 15.5302C30.4785 17.7619 27.9651 19.191 25.2338 19.4098V24.4667H36.9671C36.6719 20.8272 34.8121 17.6235 32.063 15.5302Z" fill="#F18800"/>
<path d="M16.9374 35.4437C17.7269 34.3305 18.7571 33.3987 19.949 32.7271C21.1216 32.0665 22.4283 31.6704 23.7661 31.5637V25.9344H12C12.137 29.8095 14.0448 33.2412 16.9374 35.4437Z" fill="#F18800"/>
<path d="M25.2338 25.9344V31.5637C27.9651 31.7825 30.4785 33.2116 32.063 35.4434C34.9554 33.2409 36.863 29.8094 37 25.9344H25.2338Z" fill="#F18800"/>
<path d="M30.8448 14.7105C29.1816 13.7275 27.2726 13.1185 25.2338 13V17.9374C27.4759 17.7238 29.5326 16.5409 30.8448 14.7105Z" fill="#F18800"/>
<path d="M16.9374 15.5299C14.188 17.6233 12.3281 20.8271 12.0329 24.4668H23.7662V19.41C22.4284 19.3032 21.1216 18.9072 19.9491 18.2465C18.7571 17.5748 17.7269 16.643 16.9374 15.5299Z" fill="#F18800"/>
</svg>
