<svg width="20" height="22" viewBox="0 0 20 22" fill="none" xmlns="http://www.w3.org/2000/svg">
<path d="M15.8689 7C15.8689 5.4087 15.2495 3.88258 14.1469 2.75736C13.0444 1.63214 11.5491 1 9.98987 1C8.43067 1 6.93532 1.63214 5.8328 2.75736C4.73027 3.88258 4.11088 5.4087 4.11088 7C4.11088 14 1.17139 16 1.17139 16H18.8084C18.8084 16 15.8689 14 15.8689 7Z" stroke="white" stroke-width="2" stroke-linecap="round" stroke-linejoin="round"/>
<path d="M11.685 20C11.5128 20.3031 11.2655 20.5547 10.968 20.7295C10.6705 20.9044 10.3332 20.9965 9.98991 20.9965C9.6466 20.9965 9.30931 20.9044 9.01181 20.7295C8.71432 20.5547 8.46706 20.3031 8.2948 20" stroke="white" stroke-width="2" stroke-linecap="round" stroke-linejoin="round"/>
</svg>
