<svg width="50" height="50" viewBox="0 0 50 50" fill="none" xmlns="http://www.w3.org/2000/svg">
<rect width="50" height="50" rx="14" fill="white"/>
<path d="M22.0077 30.8259C22.0059 30.8276 22.0038 30.8296 22.0016 30.8315L22.2426 32.2038L23.6145 32.4443C23.6166 32.4426 23.6183 32.4406 23.6203 32.4382L23.3584 31.0878L22.0077 30.8259Z" fill="#004F9F"/>
<path d="M34.158 20.2881C28.833 14.9634 25.7767 17.6994 25.2835 19.5567C25.0477 20.4444 25.0703 20.8133 25.0703 20.8133C24.2698 20.4192 22.2268 19.8652 20.4724 26.3036L16.699 30.9492C17.5446 32.4087 18.5147 33.685 19.6378 34.8084C20.7611 35.9313 22.0377 36.9016 23.4969 37.7472L28.1424 33.9739C29.6499 33.2734 32.1004 32.9961 33.6671 31.4289C36.8791 28.2167 38.9779 25.1079 34.158 20.2881ZM26.6314 31.7195C26.3147 32.0361 25.8016 32.0361 25.485 31.7195C25.4101 31.6448 25.3533 31.5585 25.3141 31.4666L24.3237 31.2746L24.5154 32.2649C24.6072 32.3048 24.6936 32.3615 24.7684 32.4363C25.0851 32.7528 25.0851 33.2661 24.7684 33.5828C24.4518 33.8994 23.9386 33.8994 23.622 33.5828C23.5506 33.5114 23.4964 33.4297 23.4572 33.3427L22.4103 33.1593L22.5939 34.2061C22.6808 34.245 22.7626 34.2992 22.8339 34.3709C23.1505 34.6874 23.1505 35.2007 22.8339 35.5174C22.5172 35.834 22.004 35.8339 21.6875 35.5174C21.3708 35.2007 21.3708 34.6874 21.6875 34.3709C21.6901 34.368 21.6931 34.366 21.6958 34.3632L21.455 32.9913L20.0829 32.7502C20.0804 32.7531 20.078 32.7559 20.0754 32.7587C19.7587 33.0754 19.2456 33.0754 18.9289 32.7586C18.6123 32.4421 18.6123 31.9288 18.9289 31.6123C19.2456 31.2956 19.7587 31.2956 20.0754 31.6123C20.1468 31.6834 20.2012 31.7652 20.2402 31.8521L21.2873 32.0359L21.1034 30.989C21.0166 30.95 20.9349 30.8953 20.8636 30.8241C20.547 30.5076 20.5469 29.9943 20.8636 29.6777C21.1802 29.3611 21.6934 29.3611 22.0099 29.6777C22.085 29.7526 22.1416 29.8385 22.181 29.9308L23.1715 30.1225L22.9794 29.1323C22.8876 29.0926 22.8015 29.036 22.7264 28.9609C22.4099 28.6442 22.41 28.131 22.7264 27.8145C23.043 27.4978 23.5562 27.4979 23.8728 27.8145C24.1888 28.1305 24.1893 28.6421 23.8748 28.9589L24.1365 30.3094L25.4871 30.5713C25.804 30.2565 26.3156 30.2577 26.6314 30.5731C26.9479 30.8897 26.948 31.4029 26.6314 31.7195Z" fill="#004F9F"/>
<path d="M18.3469 27.6198L18.0035 27.1773L16.6802 27.5539C16.6794 27.5568 16.6783 27.5591 16.6775 27.5621L17.5006 28.6616L18.3469 27.6198Z" fill="#004F9F"/>
<path d="M15.3116 29.1286C15.4076 29.16 15.4928 29.2081 15.5672 29.2682L16.584 28.9589L15.947 28.108C15.852 28.1123 15.7546 28.101 15.6586 28.0693C15.2331 27.9299 15.0012 27.4722 15.1406 27.0466C15.2801 26.621 15.7379 26.389 16.1634 26.5286C16.264 26.5615 16.3537 26.6131 16.4303 26.677L17.4005 26.4006L16.7819 25.604C16.6822 25.6103 16.5796 25.5989 16.4789 25.5658C16.0535 25.4264 15.8216 24.9686 15.961 24.543C16.1005 24.1175 16.5583 23.8858 16.9838 24.025C17.408 24.1638 17.6398 24.6201 17.5023 25.0448L18.3461 26.1318L19.6692 25.7548C19.7105 25.6305 19.7794 25.5236 19.8663 25.4369C20.6123 22.9891 21.3985 21.653 21.3985 21.653C21.3985 21.653 20.5871 19.4849 18.1153 20.4503C21.042 19.0637 18.9161 16.8455 18.9161 16.8455C18.9161 16.8455 21.4329 18.7616 23.8645 19.8069C23.9844 19.789 24.1056 19.7791 24.2282 19.7791C24.2804 19.7791 24.3324 19.7807 24.3844 19.7841C24.4134 19.6515 24.4485 19.5058 24.4909 19.3461C24.8299 18.0697 25.989 16.7079 27.7975 16.4169C27.1962 15.0679 25.7594 13.6466 22.7585 12.6634C16.281 10.5411 14.4559 13.8185 13.0413 18.1347C12.3515 20.2407 13.2109 22.5522 13.2674 24.2136L12 30.0625C13.4138 30.9822 14.8556 31.6826 16.3651 32.1772C16.4161 32.1941 16.4673 32.2098 16.5184 32.2261C16.3376 31.9451 16.1613 31.6568 15.9894 31.36L15.706 30.8709L16.4522 29.9522L15.8325 30.1406C15.8312 30.144 15.8308 30.1477 15.8295 30.1513C15.6901 30.5768 15.2323 30.8086 14.8067 30.6691C14.3813 30.5297 14.1494 30.072 14.2888 29.6465C14.4281 29.2208 14.8861 28.9889 15.3116 29.1286Z" fill="#004F9F"/>
</svg>
