<svg width="50" height="50" viewBox="0 0 50 50" fill="none" xmlns="http://www.w3.org/2000/svg">
<rect width="50" height="50" rx="14" fill="white"/>
<path d="M27.0511 12.574C25.6605 12.8466 24.3532 13.2137 23.1468 13.6727C20.8212 14.5576 18.8622 15.7861 17.3241 17.3241C15.7861 18.8622 14.5576 20.8212 13.6727 23.1469C13.2152 24.3492 12.8491 25.6519 12.5766 27.0374L21.9627 36.4234C23.3482 36.151 24.6508 35.7848 25.8532 35.3273C28.1789 34.4425 30.1379 33.214 31.6759 31.6759C33.214 30.1379 34.4425 28.1789 35.3273 25.8532C35.7863 24.6469 36.1534 23.3396 36.4261 21.9489L27.0511 12.574ZM18.6798 27.1478L19.7392 28.2072L21.7784 26.168L20.719 25.1086L21.7563 24.0713L22.8157 25.1307L25.1307 22.8157L24.0713 21.7563L25.1085 20.719L26.168 21.7784L28.4054 19.5409L27.346 18.4815L28.3833 17.4443L31.5394 20.6003L30.5021 21.6376L29.4427 20.5782L27.2052 22.8157L28.2646 23.8751L27.2274 24.9123L26.168 23.8529L23.8529 26.168L24.9123 27.2274L23.8751 28.2646L22.8157 27.2052L20.7765 29.2444L21.8359 30.3038L20.7986 31.3411L17.6426 28.1851L18.6798 27.1478Z" fill="#951B81"/>
<path d="M36.7178 20.1661C36.7384 20.0095 36.7583 19.8523 36.7768 19.694C37.2211 15.8828 36.8675 12.9112 36.8523 12.7865L36.7826 12.2174L36.2134 12.1477C36.0888 12.1325 33.1172 11.7789 29.306 12.2233C29.1477 12.2417 28.9904 12.2616 28.8339 12.2823L36.7178 20.1661Z" fill="#951B81"/>
<path d="M12.2842 28.8195C12.2628 28.9808 12.2423 29.1428 12.2232 29.306C11.7789 33.1172 12.1325 36.0889 12.1477 36.2135L12.2174 36.7826L12.7866 36.8523C12.8635 36.8618 14.025 37.0001 15.7992 37.0001C16.8994 37.0001 18.2352 36.9469 19.694 36.7768C19.8572 36.7578 20.0192 36.7372 20.1805 36.7158L12.2842 28.8195Z" fill="#951B81"/>
</svg>
