<svg width="50" height="50" viewBox="0 0 50 50" fill="none" xmlns="http://www.w3.org/2000/svg">
<rect width="50" height="50" rx="14" fill="white"/>
<g filter="url(#filter0_d_43_44)">
<path d="M12.3126 32.1781C11.8958 32.595 11.8958 33.2708 12.3126 33.6877L13.8222 35.2026C14.2391 35.6194 14.9149 35.6194 15.3317 35.2026L19.1068 31.4307L16.0876 28.4083L12.3126 32.1781Z" fill="#E30613"/>
<path d="M16.8424 27.6536L19.8617 30.6728C21.1374 29.397 23.3698 30.5158 26.0207 30.7923L16.7218 21.4934C16.9994 24.1454 18.1172 26.3788 16.8424 27.6536Z" fill="#E30613"/>
<path d="M32.6911 28.4052C36.4438 24.705 36.4863 18.6633 32.7862 14.9106C32.7851 14.9095 32.784 14.9084 32.7829 14.9073C29.0891 11.1073 23.014 11.0212 19.2139 14.7151C19.1779 14.7501 19.1423 14.7853 19.1068 14.8208C17.6682 16.152 16.8011 17.9886 16.6876 19.9454L27.5666 30.8243C29.5233 30.7108 31.36 29.8438 32.6911 28.4052Z" fill="#E30613"/>
<path d="M33.7972 37.0891C35.566 37.0891 37 35.6552 37 33.8863C37 32.1174 35.566 30.6835 33.7972 30.6835C32.0283 30.6835 30.5943 32.1174 30.5943 33.8863C30.5943 35.6552 32.0283 37.0891 33.7972 37.0891Z" fill="#E30613"/>
</g>
<defs>
<filter id="filter0_d_43_44" x="8" y="12" width="33" height="33.0891" filterUnits="userSpaceOnUse" color-interpolation-filters="sRGB">
<feFlood flood-opacity="0" result="BackgroundImageFix"/>
<feColorMatrix in="SourceAlpha" type="matrix" values="0 0 0 0 0 0 0 0 0 0 0 0 0 0 0 0 0 0 127 0" result="hardAlpha"/>
<feOffset dy="4"/>
<feGaussianBlur stdDeviation="2"/>
<feComposite in2="hardAlpha" operator="out"/>
<feColorMatrix type="matrix" values="0 0 0 0 0 0 0 0 0 0 0 0 0 0 0 0 0 0 0.25 0"/>
<feBlend mode="normal" in2="BackgroundImageFix" result="effect1_dropShadow_43_44"/>
<feBlend mode="normal" in="SourceGraphic" in2="effect1_dropShadow_43_44" result="shape"/>
</filter>
</defs>
</svg>
